<?xml version="1.0" standalone="no"?>
<!DOCTYPE svg PUBLIC "-//W3C//DTD SVG 20010904//EN"
 "http://www.w3.org/TR/2001/REC-SVG-20010904/DTD/svg10.dtd">
<svg version="1.0" xmlns="http://www.w3.org/2000/svg"
 width="512.000000pt" height="512.000000pt" viewBox="0 0 512.000000 512.000000"
 preserveAspectRatio="xMidYMid meet">

<g transform="translate(0.000000,512.000000) scale(0.100000,-0.100000)"
fill="#3D5A73" stroke="none">
<path d="M2330 4945 c-488 -61 -927 -298 -1238 -670 -290 -346 -451 -786 -452
-1233 -1 -617 334 -1321 966 -2028 300 -336 879 -854 954 -854 57 0 435 322
737 627 843 851 1250 1699 1173 2443 -70 672 -473 1246 -1081 1540 -330 159
-698 220 -1059 175z m498 -490 c286 -56 539 -191 747 -400 210 -209 343 -459
402 -752 24 -121 24 -393 0 -518 -116 -597 -569 -1050 -1162 -1161 -134 -25
-393 -26 -518 -1 -291 58 -544 193 -752 402 -210 209 -343 459 -402 752 -24
122 -24 404 0 526 97 486 421 883 871 1068 103 42 253 83 361 98 98 14 354 6
453 -14z"/>
<path d="M2471 4222 c-13 -2 -47 -27 -75 -55 -72 -72 -92 -147 -64 -239 14
-48 76 -121 118 -138 26 -11 30 -17 30 -52 0 -92 -89 -194 -288 -330 -158
-108 -245 -191 -289 -275 -74 -138 -82 -310 -22 -450 l18 -43 661 0 661 0 18
43 c60 140 52 312 -22 450 -45 86 -132 168 -288 275 -199 135 -289 238 -289
330 0 35 4 41 30 52 38 16 106 91 112 124 6 31 -15 81 -37 90 -32 12 -75 6
-91 -13 -55 -64 -64 -71 -94 -71 -41 0 -80 39 -80 80 0 30 7 39 71 94 21 17
25 66 9 96 -11 21 -55 37 -89 32z"/>
<path d="M1920 2467 c-49 -16 -133 -102 -148 -153 -19 -64 -15 -102 13 -129
l24 -25 751 0 751 0 24 25 c45 44 27 139 -42 215 -74 83 -50 80 -737 79 -408
-1 -612 -5 -636 -12z"/>
</g>
</svg>
